<svg id="visual" viewBox="0 0 1900 450" width="1900" height="450" xmlns="http://www.w3.org/2000/svg" xmlns:xlink="http://www.w3.org/1999/xlink" version="1.1"><path d="M0 170L26.3 159.5C52.7 149 105.3 128 158.2 129.5C211 131 264 155 316.8 156C369.7 157 422.3 135 475 126.5C527.7 118 580.3 123 633.2 124.2C686 125.3 739 122.7 791.8 122C844.7 121.3 897.3 122.7 950 123.7C1002.7 124.7 1055.3 125.3 1108.2 122.8C1161 120.3 1214 114.7 1266.8 119.3C1319.7 124 1372.3 139 1425 144.8C1477.7 150.7 1530.3 147.3 1583.2 139.8C1636 132.3 1689 120.7 1741.8 117.8C1794.7 115 1847.3 121 1873.7 124L1900 127L1900 0L1873.7 0C1847.3 0 1794.7 0 1741.8 0C1689 0 1636 0 1583.2 0C1530.3 0 1477.7 0 1425 0C1372.3 0 1319.7 0 1266.8 0C1214 0 1161 0 1108.2 0C1055.3 0 1002.7 0 950 0C897.3 0 844.7 0 791.8 0C739 0 686 0 633.2 0C580.3 0 527.7 0 475 0C422.3 0 369.7 0 316.8 0C264 0 211 0 158.2 0C105.3 0 52.7 0 26.3 0L0 0Z" fill="#d25244"></path><path d="M0 69L26.3 77.5C52.7 86 105.3 103 158.2 108.3C211 113.7 264 107.3 316.8 100.5C369.7 93.7 422.3 86.3 475 85.7C527.7 85 580.3 91 633.2 88.3C686 85.7 739 74.3 791.8 73.3C844.7 72.3 897.3 81.7 950 84.2C1002.7 86.7 1055.3 82.3 1108.2 77.7C1161 73 1214 68 1266.8 69C1319.7 70 1372.3 77 1425 88.5C1477.7 100 1530.3 116 1583.2 121.2C1636 126.3 1689 120.7 1741.8 113.2C1794.7 105.7 1847.3 96.3 1873.7 91.7L1900 87L1900 0L1873.7 0C1847.3 0 1794.7 0 1741.8 0C1689 0 1636 0 1583.2 0C1530.3 0 1477.7 0 1425 0C1372.3 0 1319.7 0 1266.8 0C1214 0 1161 0 1108.2 0C1055.3 0 1002.7 0 950 0C897.3 0 844.7 0 791.8 0C739 0 686 0 633.2 0C580.3 0 527.7 0 475 0C422.3 0 369.7 0 316.8 0C264 0 211 0 158.2 0C105.3 0 52.7 0 26.3 0L0 0Z" fill="#ea884b"></path><path d="M0 33L26.3 34C52.7 35 105.3 37 158.2 37.8C211 38.7 264 38.3 316.8 44C369.7 49.7 422.3 61.3 475 61.2C527.7 61 580.3 49 633.2 44.7C686 40.3 739 43.7 791.8 50.7C844.7 57.7 897.3 68.3 950 65.7C1002.7 63 1055.3 47 1108.2 44C1161 41 1214 51 1266.8 51.3C1319.7 51.7 1372.3 42.3 1425 39C1477.7 35.7 1530.3 38.3 1583.2 37.5C1636 36.7 1689 32.3 1741.8 35.3C1794.7 38.3 1847.3 48.7 1873.7 53.8L1900 59L1900 0L1873.7 0C1847.3 0 1794.7 0 1741.8 0C1689 0 1636 0 1583.2 0C1530.3 0 1477.7 0 1425 0C1372.3 0 1319.7 0 1266.8 0C1214 0 1161 0 1108.2 0C1055.3 0 1002.7 0 950 0C897.3 0 844.7 0 791.8 0C739 0 686 0 633.2 0C580.3 0 527.7 0 475 0C422.3 0 369.7 0 316.8 0C264 0 211 0 158.2 0C105.3 0 52.7 0 26.3 0L0 0Z" fill="#fabc61"></path></svg>